<mxfile host="www.draw.io" modified="2019-11-07T04:59:18.275Z" agent="Mozilla/5.0 (Windows NT 10.0; Win64; x64) AppleWebKit/537.36 (KHTML, like Gecko) Chrome/78.0.3904.87 Safari/537.36" etag="_-SXkY9Y7C7eG_DytD81" version="12.2.2" type="github" pages="1">
  <diagram id="wvxqfmJGiA_zQ_PElmI1" name="Page-1">
    <mxGraphModel dx="853" dy="404" grid="1" gridSize="10" guides="1" tooltips="1" connect="1" arrows="1" fold="1" page="1" pageScale="1" pageWidth="827" pageHeight="1169" math="0" shadow="0">
      <root>
        <mxCell id="0"/>
        <mxCell id="1" parent="0"/>
        <mxCell id="HeNL_k12dfMsIavLoC6A-1" value="&lt;font face=&quot;Times New Roman&quot;&gt;清洁度&lt;/font&gt;" style="text;html=1;strokeColor=none;fillColor=none;align=center;verticalAlign=middle;whiteSpace=wrap;rounded=0;" parent="1" vertex="1">
          <mxGeometry x="160" y="280" width="40" height="20" as="geometry"/>
        </mxCell>
        <mxCell id="HeNL_k12dfMsIavLoC6A-2" value="&lt;font face=&quot;Times New Roman&quot;&gt;还&lt;/font&gt;" style="text;html=1;strokeColor=none;fillColor=none;align=center;verticalAlign=middle;whiteSpace=wrap;rounded=0;" parent="1" vertex="1">
          <mxGeometry x="240" y="280" width="40" height="20" as="geometry"/>
        </mxCell>
        <mxCell id="HeNL_k12dfMsIavLoC6A-18" style="edgeStyle=orthogonalEdgeStyle;curved=1;rounded=0;orthogonalLoop=1;jettySize=auto;html=1;exitX=0.5;exitY=0;exitDx=0;exitDy=0;entryX=0.75;entryY=0;entryDx=0;entryDy=0;" parent="1" source="HeNL_k12dfMsIavLoC6A-3" target="HeNL_k12dfMsIavLoC6A-8" edge="1">
          <mxGeometry relative="1" as="geometry">
            <Array as="points">
              <mxPoint x="660" y="250"/>
              <mxPoint x="590" y="250"/>
            </Array>
          </mxGeometry>
        </mxCell>
        <mxCell id="HeNL_k12dfMsIavLoC6A-3" value="很好" style="text;html=1;strokeColor=none;fillColor=none;align=center;verticalAlign=middle;whiteSpace=wrap;rounded=0;" parent="1" vertex="1">
          <mxGeometry x="640" y="280" width="40" height="20" as="geometry"/>
        </mxCell>
        <mxCell id="HeNL_k12dfMsIavLoC6A-13" style="edgeStyle=orthogonalEdgeStyle;rounded=0;orthogonalLoop=1;jettySize=auto;html=1;exitX=0.25;exitY=0;exitDx=0;exitDy=0;entryX=0.5;entryY=0;entryDx=0;entryDy=0;curved=1;" parent="1" source="HeNL_k12dfMsIavLoC6A-4" target="HeNL_k12dfMsIavLoC6A-2" edge="1">
          <mxGeometry relative="1" as="geometry">
            <Array as="points">
              <mxPoint x="330" y="250"/>
              <mxPoint x="260" y="250"/>
            </Array>
          </mxGeometry>
        </mxCell>
        <mxCell id="HeNL_k12dfMsIavLoC6A-14" style="edgeStyle=orthogonalEdgeStyle;curved=1;rounded=0;orthogonalLoop=1;jettySize=auto;html=1;exitX=0.5;exitY=0;exitDx=0;exitDy=0;entryX=0.5;entryY=0;entryDx=0;entryDy=0;" parent="1" source="HeNL_k12dfMsIavLoC6A-4" target="HeNL_k12dfMsIavLoC6A-1" edge="1">
          <mxGeometry relative="1" as="geometry">
            <Array as="points">
              <mxPoint x="340" y="220"/>
              <mxPoint x="180" y="220"/>
            </Array>
          </mxGeometry>
        </mxCell>
        <mxCell id="HeNL_k12dfMsIavLoC6A-4" value="不错" style="text;html=1;strokeColor=none;fillColor=none;align=center;verticalAlign=middle;whiteSpace=wrap;rounded=0;" parent="1" vertex="1">
          <mxGeometry x="320" y="280" width="40" height="20" as="geometry"/>
        </mxCell>
        <mxCell id="HeNL_k12dfMsIavLoC6A-5" value="，" style="text;html=1;strokeColor=none;fillColor=none;align=center;verticalAlign=middle;whiteSpace=wrap;rounded=0;" parent="1" vertex="1">
          <mxGeometry x="400" y="280" width="40" height="20" as="geometry"/>
        </mxCell>
        <mxCell id="HeNL_k12dfMsIavLoC6A-6" value="保湿" style="text;html=1;strokeColor=none;fillColor=none;align=center;verticalAlign=middle;whiteSpace=wrap;rounded=0;" parent="1" vertex="1">
          <mxGeometry x="480" y="280" width="40" height="20" as="geometry"/>
        </mxCell>
        <mxCell id="HeNL_k12dfMsIavLoC6A-15" style="edgeStyle=orthogonalEdgeStyle;curved=1;rounded=0;orthogonalLoop=1;jettySize=auto;html=1;exitX=0.25;exitY=0;exitDx=0;exitDy=0;entryX=0.5;entryY=0;entryDx=0;entryDy=0;" parent="1" source="HeNL_k12dfMsIavLoC6A-8" target="HeNL_k12dfMsIavLoC6A-6" edge="1">
          <mxGeometry relative="1" as="geometry">
            <Array as="points">
              <mxPoint x="570" y="250"/>
              <mxPoint x="500" y="250"/>
            </Array>
          </mxGeometry>
        </mxCell>
        <mxCell id="HeNL_k12dfMsIavLoC6A-16" style="edgeStyle=orthogonalEdgeStyle;curved=1;rounded=0;orthogonalLoop=1;jettySize=auto;html=1;exitX=0.5;exitY=0;exitDx=0;exitDy=0;entryX=0.75;entryY=0;entryDx=0;entryDy=0;" parent="1" source="HeNL_k12dfMsIavLoC6A-8" target="HeNL_k12dfMsIavLoC6A-4" edge="1">
          <mxGeometry relative="1" as="geometry">
            <mxPoint x="450" y="220" as="targetPoint"/>
            <Array as="points">
              <mxPoint x="580" y="220"/>
              <mxPoint x="350" y="220"/>
            </Array>
          </mxGeometry>
        </mxCell>
        <mxCell id="HeNL_k12dfMsIavLoC6A-8" value="效果" style="text;html=1;strokeColor=none;fillColor=none;align=center;verticalAlign=middle;whiteSpace=wrap;rounded=0;" parent="1" vertex="1">
          <mxGeometry x="560" y="280" width="40" height="20" as="geometry"/>
        </mxCell>
        <mxCell id="HeNL_k12dfMsIavLoC6A-12" value="。" style="text;html=1;strokeColor=none;fillColor=none;align=center;verticalAlign=middle;whiteSpace=wrap;rounded=0;" parent="1" vertex="1">
          <mxGeometry x="720" y="280" width="40" height="20" as="geometry"/>
        </mxCell>
      </root>
    </mxGraphModel>
  </diagram>
</mxfile>
